<?xml version="1.0" standalone="no"?><!DOCTYPE svg PUBLIC "-//W3C//DTD SVG 1.1//EN" "http://www.w3.org/Graphics/SVG/1.1/DTD/svg11.dtd"><svg t="1601748832674" class="icon" viewBox="0 0 1024 1024" version="1.1" xmlns="http://www.w3.org/2000/svg" p-id="3251" xmlns:xlink="http://www.w3.org/1999/xlink" width="200" height="200"><defs><style type="text/css"></style></defs><path d="M847.104 795.584C768 716.501333 768 637.888 768 554.666667v-106.666667a256.234667 256.234667 0 0 0-172.373333-241.706667A81.621333 81.621333 0 0 0 597.333333 192a85.333333 85.333333 0 0 0-170.666666 0 81.621333 81.621333 0 0 0 1.706666 14.293333A256.234667 256.234667 0 0 0 256 448v106.666667c0 83.2 0 161.834667-79.082667 240.917333A21.333333 21.333333 0 0 0 192 832h234.666667a85.333333 85.333333 0 1 0 170.666666 0h234.666667a21.333333 21.333333 0 0 0 15.082667-36.416zM469.333333 192a42.666667 42.666667 0 0 1 85.333334 0c0 1.258667-0.810667 2.453333-0.938667 3.712a236.501333 236.501333 0 0 0-83.477333 0C470.144 194.453333 469.333333 193.237333 469.333333 192z m42.666667 682.666667a42.709333 42.709333 0 0 1-42.666667-42.666667h85.333334a42.709333 42.709333 0 0 1-42.666667 42.666667z m-273.088-85.333334C298.666667 710.016 298.666667 631.210667 298.666667 554.666667v-106.666667a213.333333 213.333333 0 0 1 426.666666 0v106.666667c0 76.544 0 155.328 59.733334 234.666666z" p-id="3252"></path></svg>
